<svg width="562" height="113" viewBox="0 0 562 113" fill="none" xmlns="http://www.w3.org/2000/svg">
<mask id="path-1-outside-1_2_2" maskUnits="userSpaceOnUse" x="61" y="15" width="466" height="91" fill="black">
<rect fill="white" x="61" y="15" width="466" height="91"/>
<path d="M97.8929 63.5272C100.553 64.0305 103.07 65.073 105.442 66.6548C107.815 68.2366 109.756 70.3577 111.266 73.0179C112.848 75.6782 113.639 78.8777 113.639 82.6165C113.639 86.6429 112.668 90.2019 110.727 93.2936C108.786 96.3134 105.982 98.686 102.315 100.412C98.7197 102.137 94.4417 103 89.4807 103H62.4105V27.7213H88.2943C95.4843 27.7213 101.164 29.375 105.334 32.6824C109.577 35.9178 111.698 40.3037 111.698 45.84C111.698 48.5002 111.158 51.0886 110.08 53.6051C109.073 56.1216 107.527 58.2786 105.442 60.076C103.429 61.8016 100.913 62.952 97.8929 63.5272ZM88.4022 32.5745H67.4794V61.4781H88.4022C93.9384 61.4781 98.2524 60.1479 101.344 57.4877C104.508 54.7555 106.089 51.1246 106.089 46.5949C106.089 42.0652 104.508 38.6141 101.344 36.2414C98.1805 33.7968 93.8665 32.5745 88.4022 32.5745ZM67.4794 98.1468H89.4807C95.2326 98.1468 99.7623 96.7088 103.07 93.8328C106.377 90.9568 108.031 87.1102 108.031 82.293C108.031 77.1881 106.197 73.2696 102.53 70.5374C98.9354 67.7333 93.9384 66.3313 87.5394 66.3313H67.4794V98.1468ZM142.153 103V44.3301H147.114V103H142.153ZM117.887 103V98.9017H168.361V103H117.887ZM125.976 48.4283V44.3301H144.634V48.4283H125.976ZM141.29 32.0353V24.2701H147.761V32.0353H141.29ZM175.629 103V24.2701H180.59V58.0269V72.5865L192.022 63.3115L214.886 44.3301H222.435L180.59 78.8418V103H175.629ZM217.905 103L195.473 64.9293L199.247 61.3702L223.837 103H217.905Z"/>
<path d="M255.803 104.294C250.554 104.294 245.845 103.18 241.674 100.951C237.576 98.722 234.305 95.5944 231.86 91.568C229.487 87.5416 228.301 82.8322 228.301 77.4398C228.301 72.263 229.092 67.5176 230.674 63.2037C232.327 58.8897 234.664 55.1509 237.684 51.9874C240.704 48.7519 244.299 46.2713 248.469 44.5458C252.711 42.8202 257.42 41.9574 262.597 41.9574C267.558 41.9574 272.016 42.8921 275.97 44.7615C279.925 46.6308 283.052 49.2911 285.353 52.7423C287.654 56.1216 288.697 60.1839 288.481 64.9293H273.598C273.382 61.4781 272.196 58.8178 270.039 56.9484C267.954 55.079 265.257 54.1443 261.95 54.1443C258.786 54.1443 256.018 54.8274 253.646 56.1935C251.345 57.5596 249.439 59.357 247.93 61.5859C246.492 63.7429 245.377 66.1515 244.586 68.8118C243.867 71.4002 243.508 73.9886 243.508 76.577C243.508 81.8975 244.766 85.852 247.282 88.4404C249.871 91.0287 252.927 92.3229 256.45 92.3229C260.332 92.3229 263.568 91.3882 266.156 89.5189C268.816 87.5776 270.614 84.9892 271.549 81.7537H286.432C285.209 86.3553 283.196 90.3457 280.392 93.725C277.66 97.1042 274.209 99.7286 270.039 101.598C265.94 103.395 261.195 104.294 255.803 104.294ZM329.398 71.7237L331.016 64.1743C331.663 61.2264 331.375 58.8537 330.153 57.0563C328.93 55.2588 326.773 54.36 323.682 54.36C320.015 54.36 316.384 55.6542 312.789 58.2426C309.194 60.7591 305.563 64.9292 301.896 70.7531L302.975 57.7034C305.491 54.2522 308.044 51.3762 310.632 49.0754C313.22 46.7027 315.953 44.9412 318.829 43.7908C321.705 42.5685 324.832 41.9574 328.211 41.9574C332.382 41.9574 335.977 42.8202 338.996 44.5458C342.016 46.1994 344.173 48.68 345.467 51.9874C346.762 55.2228 346.905 59.2851 345.899 64.1743L344.281 71.7237H329.398ZM282.699 103L295.425 43.2516H309.554L307.828 54.8993L297.582 103H282.699ZM378.943 103L380.776 91.3523L386.384 65.3606C386.96 62.7723 386.78 60.5074 385.845 58.5661C384.982 56.6249 383.544 55.1509 381.531 54.1443C379.59 53.1377 377.217 52.6344 374.413 52.6344C370.674 52.6344 367.511 53.4253 364.922 55.0071C362.334 56.517 360.788 58.9616 360.285 62.3409H345.833C346.336 58.2426 347.918 54.6836 350.578 51.6638C353.239 48.5721 356.69 46.1994 360.932 44.5458C365.174 42.8202 369.919 41.9574 375.168 41.9574C381.136 41.9574 386.241 42.9999 390.483 45.085C394.725 47.1701 397.744 50.118 399.542 53.9286C401.411 57.7393 401.807 62.233 400.728 67.4098L393.179 103H378.943ZM362.226 104.294C358.631 104.294 355.36 103.575 352.412 102.137C349.536 100.627 347.271 98.6141 345.617 96.0977C343.964 93.5093 343.137 90.5973 343.137 87.3619C343.137 82.4008 344.323 78.4463 346.696 75.4985C349.14 72.5506 352.376 70.4296 356.402 69.1354C360.429 67.8412 364.886 67.1941 369.776 67.1941H387.571L385.306 77.6554H369.128C365.677 77.6554 362.981 78.3744 361.04 79.8124C359.17 81.2504 358.236 83.2277 358.236 85.7441C358.236 87.8292 358.955 89.4829 360.393 90.7052C361.831 91.9275 363.772 92.5386 366.217 92.5386C369.74 92.5386 372.939 91.6039 375.815 89.7346C378.691 87.7933 381.351 85.097 383.796 81.6459L383.365 91.9994C380.632 96.2415 377.613 99.3691 374.305 101.382C371.07 103.324 367.043 104.294 362.226 104.294ZM411.987 103L426.007 37.1042C426.87 33.0778 428.38 29.5547 430.537 26.535C432.766 23.4433 435.498 21.0346 438.733 19.3091C441.969 17.5116 445.6 16.6128 449.626 16.6128H468.823L466.235 28.5841H453.509C450.417 28.5841 447.685 29.0874 445.312 30.094C443.011 31.1006 441.501 33.4013 440.782 36.9963L426.762 103H411.987ZM403.682 55.2228L406.271 43.2516H485.432L482.951 55.2228H403.682ZM394.192 103L396.672 91.0287H451.783L449.195 103H394.192ZM501.394 103C497.439 103 494.168 102.137 491.579 100.412C489.063 98.686 487.337 96.2774 486.403 93.1857C485.468 90.0941 485.432 86.571 486.295 82.6165L496.864 32.7902L513.257 25.78L501.07 82.6165C500.711 84.414 500.639 85.9598 500.854 87.254C501.142 88.4763 501.825 89.411 502.903 90.0581C503.982 90.7052 505.564 91.0287 507.649 91.0287H525.552L522.963 103H501.394ZM479.5 55.2228L482.089 43.2516H525.444L522.856 55.2228H479.5Z"/>
</mask>
<path d="M97.8929 63.5272C100.553 64.0305 103.07 65.073 105.442 66.6548C107.815 68.2366 109.756 70.3577 111.266 73.0179C112.848 75.6782 113.639 78.8777 113.639 82.6165C113.639 86.6429 112.668 90.2019 110.727 93.2936C108.786 96.3134 105.982 98.686 102.315 100.412C98.7197 102.137 94.4417 103 89.4807 103H62.4105V27.7213H88.2943C95.4843 27.7213 101.164 29.375 105.334 32.6824C109.577 35.9178 111.698 40.3037 111.698 45.84C111.698 48.5002 111.158 51.0886 110.08 53.6051C109.073 56.1216 107.527 58.2786 105.442 60.076C103.429 61.8016 100.913 62.952 97.8929 63.5272ZM88.4022 32.5745H67.4794V61.4781H88.4022C93.9384 61.4781 98.2524 60.1479 101.344 57.4877C104.508 54.7555 106.089 51.1246 106.089 46.5949C106.089 42.0652 104.508 38.6141 101.344 36.2414C98.1805 33.7968 93.8665 32.5745 88.4022 32.5745ZM67.4794 98.1468H89.4807C95.2326 98.1468 99.7623 96.7088 103.07 93.8328C106.377 90.9568 108.031 87.1102 108.031 82.293C108.031 77.1881 106.197 73.2696 102.53 70.5374C98.9354 67.7333 93.9384 66.3313 87.5394 66.3313H67.4794V98.1468ZM142.153 103V44.3301H147.114V103H142.153ZM117.887 103V98.9017H168.361V103H117.887ZM125.976 48.4283V44.3301H144.634V48.4283H125.976ZM141.29 32.0353V24.2701H147.761V32.0353H141.29ZM175.629 103V24.2701H180.59V58.0269V72.5865L192.022 63.3115L214.886 44.3301H222.435L180.59 78.8418V103H175.629ZM217.905 103L195.473 64.9293L199.247 61.3702L223.837 103H217.905Z" fill="#0F0F0F"/>
<path d="M255.803 104.294C250.554 104.294 245.845 103.18 241.674 100.951C237.576 98.722 234.305 95.5944 231.86 91.568C229.487 87.5416 228.301 82.8322 228.301 77.4398C228.301 72.263 229.092 67.5176 230.674 63.2037C232.327 58.8897 234.664 55.1509 237.684 51.9874C240.704 48.7519 244.299 46.2713 248.469 44.5458C252.711 42.8202 257.42 41.9574 262.597 41.9574C267.558 41.9574 272.016 42.8921 275.97 44.7615C279.925 46.6308 283.052 49.2911 285.353 52.7423C287.654 56.1216 288.697 60.1839 288.481 64.9293H273.598C273.382 61.4781 272.196 58.8178 270.039 56.9484C267.954 55.079 265.257 54.1443 261.95 54.1443C258.786 54.1443 256.018 54.8274 253.646 56.1935C251.345 57.5596 249.439 59.357 247.93 61.5859C246.492 63.7429 245.377 66.1515 244.586 68.8118C243.867 71.4002 243.508 73.9886 243.508 76.577C243.508 81.8975 244.766 85.852 247.282 88.4404C249.871 91.0287 252.927 92.3229 256.45 92.3229C260.332 92.3229 263.568 91.3882 266.156 89.5189C268.816 87.5776 270.614 84.9892 271.549 81.7537H286.432C285.209 86.3553 283.196 90.3457 280.392 93.725C277.66 97.1042 274.209 99.7286 270.039 101.598C265.94 103.395 261.195 104.294 255.803 104.294ZM329.398 71.7237L331.016 64.1743C331.663 61.2264 331.375 58.8537 330.153 57.0563C328.93 55.2588 326.773 54.36 323.682 54.36C320.015 54.36 316.384 55.6542 312.789 58.2426C309.194 60.7591 305.563 64.9292 301.896 70.7531L302.975 57.7034C305.491 54.2522 308.044 51.3762 310.632 49.0754C313.22 46.7027 315.953 44.9412 318.829 43.7908C321.705 42.5685 324.832 41.9574 328.211 41.9574C332.382 41.9574 335.977 42.8202 338.996 44.5458C342.016 46.1994 344.173 48.68 345.467 51.9874C346.762 55.2228 346.905 59.2851 345.899 64.1743L344.281 71.7237H329.398ZM282.699 103L295.425 43.2516H309.554L307.828 54.8993L297.582 103H282.699ZM378.943 103L380.776 91.3523L386.384 65.3606C386.96 62.7723 386.78 60.5074 385.845 58.5661C384.982 56.6249 383.544 55.1509 381.531 54.1443C379.59 53.1377 377.217 52.6344 374.413 52.6344C370.674 52.6344 367.511 53.4253 364.922 55.0071C362.334 56.517 360.788 58.9616 360.285 62.3409H345.833C346.336 58.2426 347.918 54.6836 350.578 51.6638C353.239 48.5721 356.69 46.1994 360.932 44.5458C365.174 42.8202 369.919 41.9574 375.168 41.9574C381.136 41.9574 386.241 42.9999 390.483 45.085C394.725 47.1701 397.744 50.118 399.542 53.9286C401.411 57.7393 401.807 62.233 400.728 67.4098L393.179 103H378.943ZM362.226 104.294C358.631 104.294 355.36 103.575 352.412 102.137C349.536 100.627 347.271 98.6141 345.617 96.0977C343.964 93.5093 343.137 90.5973 343.137 87.3619C343.137 82.4008 344.323 78.4463 346.696 75.4985C349.14 72.5506 352.376 70.4296 356.402 69.1354C360.429 67.8412 364.886 67.1941 369.776 67.1941H387.571L385.306 77.6554H369.128C365.677 77.6554 362.981 78.3744 361.04 79.8124C359.17 81.2504 358.236 83.2277 358.236 85.7441C358.236 87.8292 358.955 89.4829 360.393 90.7052C361.831 91.9275 363.772 92.5386 366.217 92.5386C369.74 92.5386 372.939 91.6039 375.815 89.7346C378.691 87.7933 381.351 85.097 383.796 81.6459L383.365 91.9994C380.632 96.2415 377.613 99.3691 374.305 101.382C371.07 103.324 367.043 104.294 362.226 104.294ZM411.987 103L426.007 37.1042C426.87 33.0778 428.38 29.5547 430.537 26.535C432.766 23.4433 435.498 21.0346 438.733 19.3091C441.969 17.5116 445.6 16.6128 449.626 16.6128H468.823L466.235 28.5841H453.509C450.417 28.5841 447.685 29.0874 445.312 30.094C443.011 31.1006 441.501 33.4013 440.782 36.9963L426.762 103H411.987ZM403.682 55.2228L406.271 43.2516H485.432L482.951 55.2228H403.682ZM394.192 103L396.672 91.0287H451.783L449.195 103H394.192ZM501.394 103C497.439 103 494.168 102.137 491.579 100.412C489.063 98.686 487.337 96.2774 486.403 93.1857C485.468 90.0941 485.432 86.571 486.295 82.6165L496.864 32.7902L513.257 25.78L501.07 82.6165C500.711 84.414 500.639 85.9598 500.854 87.254C501.142 88.4763 501.825 89.411 502.903 90.0581C503.982 90.7052 505.564 91.0287 507.649 91.0287H525.552L522.963 103H501.394ZM479.5 55.2228L482.089 43.2516H525.444L522.856 55.2228H479.5Z" fill="#EE2211"/>
<path d="M97.8929 63.5272L97.7058 62.5449L97.707 64.5098L97.8929 63.5272ZM105.442 66.6548L104.888 67.4869V67.4869L105.442 66.6548ZM111.266 73.0179L110.397 73.5115L110.401 73.5203L110.407 73.529L111.266 73.0179ZM110.727 93.2936L111.568 93.8344L111.574 93.8253L110.727 93.2936ZM102.315 100.412L101.889 99.5068L101.882 99.5101L102.315 100.412ZM62.4105 103H61.4105V104H62.4105V103ZM62.4105 27.7213V26.7213H61.4105V27.7213H62.4105ZM105.334 32.6824L104.713 33.4659L104.721 33.4717L104.728 33.4775L105.334 32.6824ZM110.08 53.6051L109.161 53.2112L109.156 53.2224L109.151 53.2337L110.08 53.6051ZM105.442 60.076L106.093 60.8353L106.095 60.8334L105.442 60.076ZM67.4794 32.5745V31.5745H66.4794V32.5745H67.4794ZM67.4794 61.4781H66.4794V62.4781H67.4794V61.4781ZM101.344 57.4877L101.996 58.2457L101.998 58.2445L101.344 57.4877ZM101.344 36.2414L100.733 37.0327L100.738 37.0371L100.744 37.0414L101.344 36.2414ZM67.4794 98.1468H66.4794V99.1468H67.4794V98.1468ZM103.07 93.8328L102.413 93.0782L103.07 93.8328ZM102.53 70.5374L101.915 71.3259L101.924 71.3327L101.933 71.3393L102.53 70.5374ZM67.4794 66.3313V65.3313H66.4794V66.3313H67.4794ZM97.8929 63.5272L97.707 64.5098C100.229 64.9868 102.621 65.9755 104.888 67.4869L105.442 66.6548L105.997 65.8228C103.519 64.1706 100.878 63.0742 98.0788 62.5446L97.8929 63.5272ZM105.442 66.6548L104.888 67.4869C107.121 68.9758 108.958 70.977 110.397 73.5115L111.266 73.0179L112.136 72.5243C110.555 69.7383 108.509 67.4975 105.997 65.8228L105.442 66.6548ZM111.266 73.0179L110.407 73.529C111.879 76.0054 112.639 79.0202 112.639 82.6165H113.639H114.639C114.639 78.7353 113.817 75.3511 112.126 72.5069L111.266 73.0179ZM113.639 82.6165H112.639C112.639 86.4748 111.711 89.8456 109.88 92.7618L110.727 93.2936L111.574 93.8253C113.625 90.5582 114.639 86.811 114.639 82.6165H113.639ZM110.727 93.2936L109.886 92.7528C108.059 95.595 105.408 97.8506 101.889 99.5068L102.315 100.412L102.741 101.316C106.555 99.5215 109.513 97.0317 111.568 93.8343L110.727 93.2936ZM102.315 100.412L101.882 99.5101C98.4509 101.157 94.3276 102 89.4807 102V103V104C94.5558 104 98.9886 103.117 102.747 101.313L102.315 100.412ZM89.4807 103V102H62.4105V103V104H89.4807V103ZM62.4105 103H63.4105V27.7213H62.4105H61.4105V103H62.4105ZM62.4105 27.7213V28.7213H88.2943V27.7213V26.7213H62.4105V27.7213ZM88.2943 27.7213V28.7213C95.3374 28.7213 100.773 30.3408 104.713 33.4659L105.334 32.6824L105.956 31.8989C101.556 28.4091 95.6311 26.7213 88.2943 26.7213V27.7213ZM105.334 32.6824L104.728 33.4775C108.711 36.5156 110.698 40.6019 110.698 45.84H111.698H112.698C112.698 40.0055 110.442 35.3201 105.941 31.8872L105.334 32.6824ZM111.698 45.84H110.698C110.698 48.3608 110.187 50.8154 109.161 53.2112L110.08 53.6051L110.999 53.999C112.129 51.3618 112.698 48.6396 112.698 45.84H111.698ZM110.08 53.6051L109.151 53.2337C108.205 55.5989 106.755 57.6241 104.789 59.3186L105.442 60.076L106.095 60.8334C108.3 58.933 109.941 56.6443 111.008 53.9765L110.08 53.6051ZM105.442 60.076L104.792 59.3168C102.931 60.9118 100.582 61.9971 97.7058 62.5449L97.8929 63.5272L98.08 64.5095C101.244 63.907 103.928 62.6914 106.093 60.8353L105.442 60.076ZM88.4022 32.5745V31.5745H67.4794V32.5745V33.5745H88.4022V32.5745ZM67.4794 32.5745H66.4794V61.4781H67.4794H68.4794V32.5745H67.4794ZM67.4794 61.4781V62.4781H88.4022V61.4781V60.4781H67.4794V61.4781ZM88.4022 61.4781V62.4781C94.0919 62.4781 98.6672 61.1102 101.996 58.2457L101.344 57.4877L100.692 56.7296C97.8375 59.1857 93.785 60.4781 88.4022 60.4781V61.4781ZM101.344 57.4877L101.998 58.2445C105.401 55.3051 107.089 51.3877 107.089 46.5949H106.089H105.089C105.089 50.8614 103.614 54.2059 100.69 56.7308L101.344 57.4877ZM106.089 46.5949H107.089C107.089 41.8027 105.398 38.0322 101.944 35.4414L101.344 36.2414L100.744 37.0414C103.617 39.1959 105.089 42.3278 105.089 46.5949H106.089ZM101.344 36.2414L101.956 35.4501C98.5625 32.8282 94.0076 31.5745 88.4022 31.5745V32.5745V33.5745C93.7254 33.5745 97.7985 34.7654 100.733 37.0327L101.344 36.2414ZM67.4794 98.1468V99.1468H89.4807V98.1468V97.1468H67.4794V98.1468ZM89.4807 98.1468V99.1468C95.3971 99.1468 100.186 97.6656 103.726 94.5874L103.07 93.8328L102.413 93.0782C99.3386 95.752 95.0681 97.1468 89.4807 97.1468V98.1468ZM103.07 93.8328L103.726 94.5874C107.275 91.5013 109.031 87.3674 109.031 82.293H108.031H107.031C107.031 86.853 105.479 90.4124 102.413 93.0782L103.07 93.8328ZM108.031 82.293H109.031C109.031 76.9145 107.08 72.6803 103.128 69.7355L102.53 70.5374L101.933 71.3393C105.314 73.8588 107.031 77.4617 107.031 82.293H108.031ZM102.53 70.5374L103.145 69.7489C99.316 66.762 94.0732 65.3313 87.5394 65.3313V66.3313V67.3313C93.8037 67.3313 98.5548 68.7047 101.915 71.3259L102.53 70.5374ZM87.5394 66.3313V65.3313H67.4794V66.3313V67.3313H87.5394V66.3313ZM67.4794 66.3313H66.4794V98.1468H67.4794H68.4794V66.3313H67.4794ZM142.153 103H141.153V104H142.153V103ZM142.153 44.3301V43.3301H141.153V44.3301H142.153ZM147.114 44.3301H148.114V43.3301H147.114V44.3301ZM147.114 103V104H148.114V103H147.114ZM117.887 103H116.887V104H117.887V103ZM117.887 98.9017V97.9017H116.887V98.9017H117.887ZM168.361 98.9017H169.361V97.9017H168.361V98.9017ZM168.361 103V104H169.361V103H168.361ZM125.976 48.4283H124.976V49.4283H125.976V48.4283ZM125.976 44.3301V43.3301H124.976V44.3301H125.976ZM144.634 44.3301H145.634V43.3301H144.634V44.3301ZM144.634 48.4283V49.4283H145.634V48.4283H144.634ZM141.29 32.0353H140.29V33.0353H141.29V32.0353ZM141.29 24.2701V23.2701H140.29V24.2701H141.29ZM147.761 24.2701H148.761V23.2701H147.761V24.2701ZM147.761 32.0353V33.0353H148.761V32.0353H147.761ZM142.153 103H143.153V44.3301H142.153H141.153V103H142.153ZM142.153 44.3301V45.3301H147.114V44.3301V43.3301H142.153V44.3301ZM147.114 44.3301H146.114V103H147.114H148.114V44.3301H147.114ZM147.114 103V102H142.153V103V104H147.114V103ZM117.887 103H118.887V98.9017H117.887H116.887V103H117.887ZM117.887 98.9017V99.9017H168.361V98.9017V97.9017H117.887V98.9017ZM168.361 98.9017H167.361V103H168.361H169.361V98.9017H168.361ZM168.361 103V102H117.887V103V104H168.361V103ZM125.976 48.4283H126.976V44.3301H125.976H124.976V48.4283H125.976ZM125.976 44.3301V45.3301H144.634V44.3301V43.3301H125.976V44.3301ZM144.634 44.3301H143.634V48.4283H144.634H145.634V44.3301H144.634ZM144.634 48.4283V47.4283H125.976V48.4283V49.4283H144.634V48.4283ZM141.29 32.0353H142.29V24.2701H141.29H140.29V32.0353H141.29ZM141.29 24.2701V25.2701H147.761V24.2701V23.2701H141.29V24.2701ZM147.761 24.2701H146.761V32.0353H147.761H148.761V24.2701H147.761ZM147.761 32.0353V31.0353H141.29V32.0353V33.0353H147.761V32.0353ZM175.629 103H174.629V104H175.629V103ZM175.629 24.2701V23.2701H174.629V24.2701H175.629ZM180.59 24.2701H181.59V23.2701H180.59V24.2701ZM180.59 72.5865H179.59V74.6856L181.22 73.3631L180.59 72.5865ZM192.022 63.3115L192.652 64.0881L192.66 64.0809L192.022 63.3115ZM214.886 44.3301V43.3301H214.525L214.247 43.5607L214.886 44.3301ZM222.435 44.3301L223.071 45.1015L225.219 43.3301H222.435V44.3301ZM180.59 78.8418L179.953 78.0703L179.59 78.3703V78.8418H180.59ZM180.59 103V104H181.59V103H180.59ZM217.905 103L217.044 103.508L217.334 104H217.905V103ZM195.473 64.9292L194.787 64.2017L194.206 64.7492L194.611 65.4369L195.473 64.9292ZM199.247 61.3702L200.109 60.8617L199.472 59.7841L198.561 60.6426L199.247 61.3702ZM223.837 103V104H225.589L224.698 102.491L223.837 103ZM175.629 103H176.629V24.2701H175.629H174.629V103H175.629ZM175.629 24.2701V25.2701H180.59V24.2701V23.2701H175.629V24.2701ZM180.59 24.2701H179.59V58.0269H180.59H181.59V24.2701H180.59ZM180.59 58.0269H179.59V72.5865H180.59H181.59V58.0269H180.59ZM180.59 72.5865L181.22 73.3631L192.652 64.0881L192.022 63.3115L191.392 62.535L179.96 71.81L180.59 72.5865ZM192.022 63.3115L192.66 64.0809L215.524 45.0995L214.886 44.3301L214.247 43.5607L191.383 62.5421L192.022 63.3115ZM214.886 44.3301V45.3301H222.435V44.3301V43.3301H214.886V44.3301ZM222.435 44.3301L221.799 43.5586L179.953 78.0703L180.59 78.8418L181.226 79.6133L223.071 45.1015L222.435 44.3301ZM180.59 78.8418H179.59V103H180.59H181.59V78.8418H180.59ZM180.59 103V102H175.629V103V104H180.59V103ZM217.905 103L218.767 102.492L196.334 64.4216L195.473 64.9292L194.611 65.4369L217.044 103.508L217.905 103ZM195.473 64.9292L196.159 65.6568L199.934 62.0978L199.247 61.3702L198.561 60.6426L194.787 64.2017L195.473 64.9292ZM199.247 61.3702L198.386 61.8788L222.976 103.509L223.837 103L224.698 102.491L200.109 60.8617L199.247 61.3702ZM223.837 103V102H217.905V103V104H223.837V103ZM241.674 100.951L241.197 101.829L241.203 101.833L241.674 100.951ZM231.86 91.568L230.998 92.0757L231.005 92.087L231.86 91.568ZM230.674 63.2037L229.74 62.8457L229.737 62.8526L229.735 62.8594L230.674 63.2037ZM237.684 51.9874L238.407 52.6779L238.415 52.6697L237.684 51.9874ZM248.469 44.5458L248.092 43.6194L248.086 43.6217L248.469 44.5458ZM275.97 44.7615L275.543 45.6655V45.6655L275.97 44.7615ZM285.353 52.7423L284.521 53.297L284.527 53.3051L285.353 52.7423ZM288.481 64.9292V65.9292H289.436L289.48 64.9747L288.481 64.9292ZM273.598 64.9292L272.6 64.9916L272.658 65.9292H273.598V64.9292ZM270.039 56.9484L269.371 57.693L269.377 57.6986L269.384 57.7041L270.039 56.9484ZM253.646 56.1935L253.147 55.3268L253.135 55.3336L253.646 56.1935ZM247.93 61.5859L247.102 61.0251L247.098 61.0312L247.93 61.5859ZM244.586 68.8118L243.628 68.5269L243.625 68.5355L243.623 68.5442L244.586 68.8118ZM247.282 88.4404L246.565 89.1375L246.575 89.1475L247.282 88.4404ZM266.156 89.5189L266.742 90.3295L266.746 90.3266L266.156 89.5189ZM271.549 81.7537V80.7537H270.797L270.588 81.4762L271.549 81.7537ZM286.432 81.7537L287.398 82.0104L287.732 80.7537H286.432V81.7537ZM280.392 93.725L279.623 93.0863L279.615 93.0963L280.392 93.725ZM270.039 101.598L270.44 102.514L270.448 102.51L270.039 101.598ZM255.803 104.294V103.294C250.7 103.294 246.155 102.212 242.146 100.069L241.674 100.951L241.203 101.833C245.534 104.147 250.408 105.294 255.803 105.294V104.294ZM241.674 100.951L242.152 100.072C238.211 97.9288 235.069 94.9259 232.715 91.049L231.86 91.568L231.005 92.087C233.541 96.2628 236.941 99.5152 241.197 101.829L241.674 100.951ZM231.86 91.568L232.722 91.0603C230.453 87.2101 229.301 82.6815 229.301 77.4398H228.301H227.301C227.301 82.9829 228.522 87.8731 230.999 92.0757L231.86 91.568ZM228.301 77.4398H229.301C229.301 72.3657 230.076 67.7386 231.613 63.5479L230.674 63.2037L229.735 62.8594C228.108 67.2967 227.301 72.1603 227.301 77.4398H228.301ZM230.674 63.2037L231.607 63.5616C233.216 59.3642 235.484 55.7402 238.407 52.6778L237.684 51.9874L236.961 51.2969C233.844 54.5616 231.438 58.4152 229.74 62.8457L230.674 63.2037ZM237.684 51.9874L238.415 52.6697C241.335 49.5409 244.811 47.1418 248.851 45.4698L248.469 44.5458L248.086 43.6217C243.787 45.4009 240.072 47.9629 236.953 51.305L237.684 51.9874ZM248.469 44.5458L248.846 45.4721C252.953 43.8011 257.533 42.9574 262.597 42.9574V41.9574V40.9574C257.308 40.9574 252.468 41.8393 248.092 43.6195L248.469 44.5458ZM262.597 41.9574V42.9574C267.43 42.9574 271.739 43.8673 275.543 45.6655L275.97 44.7615L276.398 43.8574C272.293 41.9169 267.686 40.9574 262.597 40.9574V41.9574ZM275.97 44.7615L275.543 45.6655C279.343 47.4618 282.327 50.0052 284.521 53.297L285.353 52.7423L286.185 52.1876C283.778 48.577 280.507 45.7999 276.398 43.8574L275.97 44.7615ZM285.353 52.7423L284.527 53.3051C286.687 56.4777 287.689 60.3182 287.482 64.8838L288.481 64.9292L289.48 64.9747C289.704 60.0496 288.621 55.7654 286.18 52.1795L285.353 52.7423ZM288.481 64.9292V63.9292H273.598V64.9292V65.9292H288.481V64.9292ZM273.598 64.9292L274.596 64.8669C274.367 61.2085 273.095 58.274 270.694 56.1927L270.039 56.9484L269.384 57.7041C271.296 59.3616 272.397 61.7476 272.6 64.9916L273.598 64.9292ZM270.039 56.9484L270.706 56.2038C268.405 54.141 265.457 53.1443 261.95 53.1443V54.1443V55.1443C265.058 55.1443 267.502 56.0171 269.371 57.693L270.039 56.9484ZM261.95 54.1443V53.1443C258.639 53.1443 255.693 53.8606 253.147 55.3268L253.646 56.1935L254.145 57.0601C256.343 55.7942 258.934 55.1443 261.95 55.1443V54.1443ZM253.646 56.1935L253.135 55.3336C250.707 56.7753 248.694 58.6752 247.102 61.0251L247.93 61.5859L248.758 62.1468C250.185 60.0389 251.983 58.3438 254.156 57.0533L253.646 56.1935ZM247.93 61.5859L247.098 61.0312C245.6 63.277 244.445 65.7776 243.628 68.5269L244.586 68.8118L245.545 69.0968C246.309 66.5255 247.383 64.2089 248.762 62.1406L247.93 61.5859ZM244.586 68.8118L243.623 68.5442C242.88 71.2164 242.508 73.8947 242.508 76.577H243.508H244.508C244.508 74.0824 244.854 71.584 245.55 69.0795L244.586 68.8118ZM243.508 76.577H242.508C242.508 82.0356 243.797 86.2901 246.565 89.1374L247.282 88.4404L247.999 87.7433C245.735 85.4139 244.508 81.7594 244.508 76.577H243.508ZM247.282 88.4404L246.575 89.1475C249.343 91.9152 252.65 93.3229 256.45 93.3229V92.3229V91.3229C253.203 91.3229 250.399 90.1423 247.99 87.7333L247.282 88.4404ZM256.45 92.3229V93.3229C260.496 93.3229 263.949 92.3466 266.742 90.3295L266.156 89.5189L265.571 88.7082C263.187 90.4299 260.168 91.3229 256.45 91.3229V92.3229ZM266.156 89.5189L266.746 90.3266C269.589 88.2515 271.515 85.4745 272.509 82.0313L271.549 81.7537L270.588 81.4762C269.713 84.5038 268.043 86.9036 265.567 88.7111L266.156 89.5189ZM271.549 81.7537V82.7537H286.432V81.7537V80.7537H271.549V81.7537ZM286.432 81.7537L285.465 81.497C284.277 85.9705 282.327 89.8278 279.623 93.0864L280.392 93.725L281.162 94.3635C284.066 90.8636 286.142 86.7401 287.398 82.0104L286.432 81.7537ZM280.392 93.725L279.615 93.0963C276.986 96.3469 273.664 98.877 269.63 100.685L270.039 101.598L270.448 102.51C274.754 100.58 278.334 97.8616 281.17 94.3537L280.392 93.725ZM270.039 101.598L269.637 100.682C265.689 102.414 261.085 103.294 255.803 103.294V104.294V105.294C261.306 105.294 266.192 104.377 270.44 102.514L270.039 101.598ZM329.398 71.7237L328.42 71.5142L328.161 72.7237H329.398V71.7237ZM331.016 64.1743L330.039 63.9599L330.038 63.9648L331.016 64.1743ZM330.153 57.0563L329.326 57.6186V57.6186L330.153 57.0563ZM312.789 58.2426L313.363 59.0619L313.373 59.0541L312.789 58.2426ZM301.896 70.7531L300.9 70.6707L302.743 71.2859L301.896 70.7531ZM302.975 57.7034L302.167 57.1142L302.001 57.3411L301.978 57.621L302.975 57.7034ZM310.632 49.0754L311.296 49.8228L311.302 49.8178L311.308 49.8126L310.632 49.0754ZM318.829 43.7908L319.2 44.7193L319.21 44.7153L319.22 44.7111L318.829 43.7908ZM338.996 44.5458L338.5 45.414L338.508 45.4185L338.516 45.4229L338.996 44.5458ZM345.467 51.9874L344.536 52.3518L344.539 52.3587L345.467 51.9874ZM345.899 64.1743L346.877 64.3838L346.878 64.376L345.899 64.1743ZM344.281 71.7237V72.7237H345.089L345.259 71.9333L344.281 71.7237ZM282.699 103L281.721 102.792L281.464 104H282.699V103ZM295.425 43.2516V42.2516H294.616L294.447 43.0432L295.425 43.2516ZM309.554 43.2516L310.543 43.3981L310.713 42.2516H309.554V43.2516ZM307.828 54.8993L308.806 55.1076L308.813 55.0769L308.817 55.0458L307.828 54.8993ZM297.582 103V104H298.392L298.56 103.208L297.582 103ZM329.398 71.7237L330.376 71.9333L331.993 64.3838L331.016 64.1743L330.038 63.9648L328.42 71.5142L329.398 71.7237ZM331.016 64.1743L331.992 64.3887C332.675 61.2795 332.409 58.5958 330.98 56.4939L330.153 57.0563L329.326 57.6186C330.341 59.1117 330.65 61.1734 330.039 63.9599L331.016 64.1743ZM330.153 57.0563L330.98 56.494C329.5 54.318 326.954 53.36 323.682 53.36V54.36V55.36C326.593 55.36 328.361 56.1995 329.326 57.6186L330.153 57.0563ZM323.682 54.36V53.36C319.765 53.36 315.934 54.7462 312.205 57.4311L312.789 58.2426L313.373 59.0541C316.834 56.5623 320.265 55.36 323.682 55.36V54.36ZM312.789 58.2426L312.216 57.4234C308.467 60.0471 304.752 64.3408 301.05 70.2203L301.896 70.7531L302.743 71.2859C306.374 65.5177 309.921 61.471 313.363 59.0618L312.789 58.2426ZM301.896 70.7531L302.893 70.8355L303.971 57.7857L302.975 57.7034L301.978 57.621L300.9 70.6707L301.896 70.7531ZM302.975 57.7034L303.783 58.2925C306.267 54.8863 308.772 52.0667 311.296 49.8228L310.632 49.0754L309.968 48.328C307.315 50.6857 304.716 53.6181 302.167 57.1142L302.975 57.7034ZM310.632 49.0754L311.308 49.8126C313.819 47.5107 316.45 45.8192 319.2 44.7193L318.829 43.7908L318.457 42.8623C315.455 44.0632 312.622 45.8948 309.956 48.3383L310.632 49.0754ZM318.829 43.7908L319.22 44.7111C321.962 43.5456 324.956 42.9574 328.211 42.9574V41.9574V40.9574C324.709 40.9574 321.447 41.5915 318.437 42.8705L318.829 43.7908ZM328.211 41.9574V42.9574C332.242 42.9574 335.659 43.7905 338.5 45.414L338.996 44.5458L339.493 43.6775C336.294 41.8499 332.521 40.9574 328.211 40.9574V41.9574ZM338.996 44.5458L338.516 45.4229C341.323 46.96 343.324 49.2554 344.536 52.3518L345.467 51.9874L346.399 51.623C345.022 48.1046 342.709 45.4389 339.477 43.6687L338.996 44.5458ZM345.467 51.9874L344.539 52.3587C345.735 55.3495 345.903 59.1962 344.919 63.9727L345.899 64.1743L346.878 64.376C347.908 59.3741 347.788 55.0961 346.396 51.616L345.467 51.9874ZM345.899 64.1743L344.921 63.9648L343.303 71.5142L344.281 71.7237L345.259 71.9333L346.877 64.3838L345.899 64.1743ZM344.281 71.7237V70.7237H329.398V71.7237V72.7237H344.281V71.7237ZM282.699 103L283.677 103.208L296.403 43.4599L295.425 43.2516L294.447 43.0432L281.721 102.792L282.699 103ZM295.425 43.2516V44.2516H309.554V43.2516V42.2516H295.425V43.2516ZM309.554 43.2516L308.564 43.105L306.839 54.7527L307.828 54.8993L308.817 55.0458L310.543 43.3981L309.554 43.2516ZM307.828 54.8993L306.85 54.6909L296.604 102.792L297.582 103L298.56 103.208L308.806 55.1076L307.828 54.8993ZM297.582 103V102H282.699V103V104H297.582V103ZM378.943 103L377.955 102.845L377.773 104H378.943V103ZM380.776 91.3523L379.799 91.1414L379.793 91.1689L379.788 91.1968L380.776 91.3523ZM386.384 65.3606L385.408 65.1437L385.407 65.1497L386.384 65.3606ZM385.845 58.5662L384.931 58.9723L384.937 58.9862L384.944 59L385.845 58.5662ZM381.531 54.1443L381.071 55.0321L381.077 55.0355L381.084 55.0388L381.531 54.1443ZM364.922 55.0071L365.426 55.8709L365.435 55.8657L365.444 55.8604L364.922 55.0071ZM360.285 62.3409V63.3409H361.147L361.274 62.4882L360.285 62.3409ZM345.833 62.3409L344.84 62.219L344.703 63.3409H345.833V62.3409ZM350.578 51.6638L351.329 52.3249L351.336 52.316L350.578 51.6638ZM360.932 44.5458L361.295 45.4775L361.302 45.4748L361.309 45.4721L360.932 44.5458ZM390.483 45.085L390.041 45.9825V45.9825L390.483 45.085ZM399.542 53.9286L398.637 54.3553L398.641 54.3622L398.644 54.3691L399.542 53.9286ZM400.728 67.4098L401.706 67.6173L401.707 67.6137L400.728 67.4098ZM393.179 103V104H393.989L394.157 103.208L393.179 103ZM352.412 102.137L351.947 103.023L351.96 103.029L351.973 103.036L352.412 102.137ZM345.617 96.0977L344.775 96.6361L344.782 96.6468L345.617 96.0977ZM346.696 75.4985L345.926 74.8601L345.921 74.8658L345.917 74.8715L346.696 75.4985ZM356.402 69.1354L356.096 68.1833V68.1833L356.402 69.1354ZM387.571 67.1941L388.548 67.4057L388.81 66.1941H387.571V67.1941ZM385.306 77.6554V78.6554H386.112L386.283 77.867L385.306 77.6554ZM361.04 79.8124L360.445 79.0089L360.437 79.0143L360.43 79.0198L361.04 79.8124ZM360.393 90.7052L361.04 89.9433V89.9433L360.393 90.7052ZM375.815 89.7346L376.36 90.573L376.367 90.5683L376.375 90.5634L375.815 89.7346ZM383.796 81.6459L384.795 81.6875L384.936 78.3064L382.98 81.0678L383.796 81.6459ZM383.365 91.9994L384.205 92.5409L384.352 92.3125L384.364 92.041L383.365 91.9994ZM374.305 101.382L374.82 102.24L374.825 102.236L374.305 101.382ZM378.943 103L379.931 103.155L381.764 91.5078L380.776 91.3523L379.788 91.1968L377.955 102.845L378.943 103ZM380.776 91.3523L381.754 91.5632L387.362 65.5716L386.384 65.3606L385.407 65.1497L379.799 91.1414L380.776 91.3523ZM386.384 65.3606L387.361 65.5776C387.973 62.8219 387.799 60.3191 386.746 58.1323L385.845 58.5662L384.944 59C385.761 60.6957 385.946 62.7226 385.408 65.1437L386.384 65.3606ZM385.845 58.5662L386.759 58.16C385.796 55.9936 384.186 54.3536 381.978 53.2499L381.531 54.1443L381.084 55.0388C382.903 55.9483 384.169 57.2562 384.931 58.9723L385.845 58.5662ZM381.531 54.1443L381.991 53.2566C379.873 52.1584 377.333 51.6344 374.413 51.6344V52.6344V53.6344C377.101 53.6344 379.306 54.1171 381.071 55.0321L381.531 54.1443ZM374.413 52.6344V51.6344C370.533 51.6344 367.179 52.4561 364.401 54.1538L364.922 55.0071L365.444 55.8604C367.842 54.3946 370.816 53.6344 374.413 53.6344V52.6344ZM364.922 55.0071L364.418 54.1433C361.529 55.8287 359.837 58.5617 359.296 62.1936L360.285 62.3409L361.274 62.4882C361.74 59.3615 363.139 57.2053 365.426 55.8709L364.922 55.0071ZM360.285 62.3409V61.3409H345.833V62.3409V63.3409H360.285V62.3409ZM345.833 62.3409L346.826 62.4628C347.305 58.559 348.805 55.1893 351.329 52.3248L350.578 51.6638L349.828 51.0028C347.031 54.1779 345.368 57.9262 344.84 62.219L345.833 62.3409ZM350.578 51.6638L351.336 52.316C353.878 49.3623 357.188 47.0787 361.295 45.4775L360.932 44.5458L360.569 43.6141C356.192 45.3202 352.599 47.782 349.82 51.0116L350.578 51.6638ZM360.932 44.5458L361.309 45.4721C365.415 43.8017 370.03 42.9574 375.168 42.9574V41.9574V40.9574C369.809 40.9574 364.933 41.8386 360.555 43.6195L360.932 44.5458ZM375.168 41.9574V42.9574C381.022 42.9574 385.968 43.9802 390.041 45.9825L390.483 45.085L390.924 44.1876C386.513 42.0197 381.25 40.9574 375.168 40.9574V41.9574ZM390.483 45.085L390.041 45.9825C394.106 47.9805 396.948 50.7744 398.637 54.3553L399.542 53.9286L400.446 53.502C398.54 49.4615 395.343 46.3597 390.924 44.1876L390.483 45.085ZM399.542 53.9286L398.644 54.3691C400.393 57.935 400.794 62.1922 399.749 67.2058L400.728 67.4098L401.707 67.6137C402.82 62.2738 402.429 57.5436 400.44 53.4882L399.542 53.9286ZM400.728 67.4098L399.75 67.2023L392.201 102.792L393.179 103L394.157 103.208L401.706 67.6173L400.728 67.4098ZM393.179 103V102H378.943V103V104H393.179V103ZM362.226 104.294V103.294C358.768 103.294 355.649 102.604 352.85 101.238L352.412 102.137L351.973 103.036C355.071 104.547 358.494 105.294 362.226 105.294V104.294ZM352.412 102.137L352.877 101.252C350.139 99.8144 348.006 97.9122 346.453 95.5485L345.617 96.0977L344.782 96.6468C346.536 99.3161 348.933 101.44 351.947 103.023L352.412 102.137ZM345.617 96.0977L346.46 95.5593C344.915 93.1404 344.137 90.4172 344.137 87.3619H343.137H342.137C342.137 90.7775 343.013 93.8781 344.775 96.636L345.617 96.0977ZM343.137 87.3619H344.137C344.137 82.5574 345.284 78.847 347.475 76.1255L346.696 75.4985L345.917 74.8715C343.362 78.0457 342.137 82.2442 342.137 87.3619H343.137ZM346.696 75.4985L347.466 76.1368C349.776 73.3506 352.844 71.3296 356.708 70.0874L356.402 69.1354L356.096 68.1833C351.908 69.5295 348.505 71.7506 345.926 74.8601L346.696 75.4985ZM356.402 69.1354L356.708 70.0874C360.622 68.8295 364.974 68.1941 369.776 68.1941V67.1941V66.1941C364.798 66.1941 360.236 66.8528 356.096 68.1833L356.402 69.1354ZM369.776 67.1941V68.1941H387.571V67.1941V66.1941H369.776V67.1941ZM387.571 67.1941L386.593 66.9825L384.328 77.4439L385.306 77.6554L386.283 77.867L388.548 67.4057L387.571 67.1941ZM385.306 77.6554V76.6554H369.128V77.6554V78.6554H385.306V77.6554ZM369.128 77.6554V76.6554C365.552 76.6554 362.618 77.399 360.445 79.0089L361.04 79.8124L361.635 80.616C363.344 79.3499 365.803 78.6554 369.128 78.6554V77.6554ZM361.04 79.8124L360.43 79.0198C358.296 80.6613 357.236 82.9413 357.236 85.7441H358.236H359.236C359.236 83.514 360.045 81.8395 361.649 80.6051L361.04 79.8124ZM358.236 85.7441H357.236C357.236 88.0879 358.058 90.0335 359.745 91.4671L360.393 90.7052L361.04 89.9433C359.851 88.9323 359.236 87.5705 359.236 85.7441H358.236ZM360.393 90.7052L359.745 91.4671C361.412 92.8838 363.606 93.5386 366.217 93.5386V92.5386V91.5386C363.938 91.5386 362.25 90.9712 361.04 89.9433L360.393 90.7052ZM366.217 92.5386V93.5386C369.928 93.5386 373.317 92.5508 376.36 90.573L375.815 89.7346L375.27 88.8961C372.561 90.6571 369.552 91.5386 366.217 91.5386V92.5386ZM375.815 89.7346L376.375 90.5634C379.37 88.5417 382.112 85.7526 384.612 82.2239L383.796 81.6459L382.98 81.0678C380.59 84.4415 378.012 87.0448 375.256 88.9057L375.815 89.7346ZM383.796 81.6459L382.797 81.6042L382.365 91.9578L383.365 91.9994L384.364 92.041L384.795 81.6875L383.796 81.6459ZM383.365 91.9994L382.524 91.4579C379.85 95.6099 376.93 98.6136 373.785 100.528L374.305 101.382L374.825 102.236C378.295 100.125 381.415 96.873 384.205 92.5409L383.365 91.9994ZM374.305 101.382L373.791 100.525C370.748 102.35 366.911 103.294 362.226 103.294V104.294V105.294C367.175 105.294 371.391 104.297 374.82 102.24L374.305 101.382ZM411.987 103L411.009 102.792L410.752 104H411.987V103ZM426.007 37.1042L425.029 36.8946L425.029 36.8961L426.007 37.1042ZM430.537 26.535L429.726 25.9501L429.723 25.9537L430.537 26.535ZM438.733 19.3091L439.204 20.1914L439.211 20.1874L439.219 20.1832L438.733 19.3091ZM468.823 16.6128L469.801 16.8242L470.062 15.6128H468.823V16.6128ZM466.235 28.5841V29.5841H467.042L467.212 28.7954L466.235 28.5841ZM445.312 30.094L444.921 29.1733L444.911 29.1778L445.312 30.094ZM440.782 36.9963L441.761 37.2041L441.763 37.1924L440.782 36.9963ZM426.762 103V104H427.572L427.74 103.208L426.762 103ZM403.682 55.2228L402.705 55.0115L402.443 56.2228H403.682V55.2228ZM406.271 43.2516V42.2516H405.464L405.293 43.0402L406.271 43.2516ZM485.432 43.2516L486.411 43.4545L486.66 42.2516H485.432V43.2516ZM482.951 55.2228V56.2228H483.765L483.931 55.4257L482.951 55.2228ZM394.192 103L393.212 102.797L392.963 104H394.192V103ZM396.672 91.0287V90.0287H395.858L395.693 90.8258L396.672 91.0287ZM451.783 91.0287L452.76 91.2401L453.022 90.0287H451.783V91.0287ZM449.195 103V104H450.002L450.172 103.211L449.195 103ZM491.579 100.412L491.014 101.236L491.025 101.244L491.579 100.412ZM486.403 93.1857L487.36 92.8963V92.8963L486.403 93.1857ZM486.295 82.6165L487.272 82.8297L487.273 82.824L486.295 82.6165ZM496.864 32.7902L496.471 31.8708L495.993 32.0749L495.886 32.5827L496.864 32.7902ZM513.257 25.78L514.235 25.9897L514.64 24.1011L512.864 24.8605L513.257 25.78ZM501.07 82.6165L500.092 82.4068L500.089 82.4204L501.07 82.6165ZM500.854 87.254L499.868 87.4184L499.873 87.451L499.881 87.4831L500.854 87.254ZM502.904 90.0581L502.389 90.9156V90.9156L502.904 90.0581ZM525.552 91.0287L526.529 91.2401L526.791 90.0287H525.552V91.0287ZM522.963 103V104H523.77L523.941 103.211L522.963 103ZM479.5 55.2228L478.523 55.0115L478.261 56.2228H479.5V55.2228ZM482.089 43.2516V42.2516H481.282L481.111 43.0402L482.089 43.2516ZM525.444 43.2516L526.421 43.4629L526.683 42.2516H525.444V43.2516ZM522.856 55.2228V56.2228H523.662L523.833 55.4342L522.856 55.2228ZM411.987 103L412.965 103.208L426.985 37.3123L426.007 37.1042L425.029 36.8961L411.009 102.792L411.987 103ZM426.007 37.1042L426.985 37.3137C427.822 33.4064 429.281 30.013 431.35 27.1162L430.537 26.535L429.723 25.9537C427.478 29.0965 425.918 32.7492 425.029 36.8946L426.007 37.1042ZM430.537 26.535L431.348 27.1198C433.491 24.1469 436.108 21.8423 439.204 20.1914L438.733 19.3091L438.263 18.4267C434.887 20.227 432.04 22.7396 429.726 25.9501L430.537 26.535ZM438.733 19.3091L439.219 20.1832C442.293 18.4754 445.754 17.6128 449.626 17.6128V16.6128V15.6128C445.445 15.6128 441.645 16.5477 438.248 18.4349L438.733 19.3091ZM449.626 16.6128V17.6128H468.823V16.6128V15.6128H449.626V16.6128ZM468.823 16.6128L467.846 16.4015L465.257 28.3727L466.235 28.5841L467.212 28.7954L469.801 16.8242L468.823 16.6128ZM466.235 28.5841V27.5841H453.509V28.5841V29.5841H466.235V28.5841ZM453.509 28.5841V27.5841C450.309 27.5841 447.44 28.105 444.922 29.1734L445.312 30.094L445.703 31.0146C447.93 30.0697 450.525 29.5841 453.509 29.5841V28.5841ZM445.312 30.094L444.911 29.1778C442.19 30.3683 440.554 33.0413 439.802 36.8002L440.782 36.9963L441.763 37.1924C442.449 33.7614 443.832 31.8328 445.713 31.0101L445.312 30.094ZM440.782 36.9963L439.804 36.7885L425.784 102.792L426.762 103L427.74 103.208L441.761 37.2041L440.782 36.9963ZM426.762 103V102H411.987V103V104H426.762V103ZM403.682 55.2228L404.66 55.4342L407.248 43.4629L406.271 43.2516L405.293 43.0402L402.705 55.0115L403.682 55.2228ZM406.271 43.2516V44.2516H485.432V43.2516V42.2516H406.271V43.2516ZM485.432 43.2516L484.453 43.0487L481.972 55.0199L482.951 55.2228L483.931 55.4257L486.411 43.4545L485.432 43.2516ZM482.951 55.2228V54.2228H403.682V55.2228V56.2228H482.951V55.2228ZM394.192 103L395.171 103.203L397.651 91.2316L396.672 91.0287L395.693 90.8258L393.212 102.797L394.192 103ZM396.672 91.0287V92.0287H451.783V91.0287V90.0287H396.672V91.0287ZM451.783 91.0287L450.806 90.8174L448.217 102.789L449.195 103L450.172 103.211L452.76 91.2401L451.783 91.0287ZM449.195 103V102H394.192V103V104H449.195V103ZM501.394 103V102C497.583 102 494.519 101.169 492.134 99.5796L491.579 100.412L491.025 101.244C493.817 103.105 497.295 104 501.394 104V103ZM491.579 100.412L492.145 99.5869C489.828 97.9979 488.233 95.7839 487.36 92.8963L486.403 93.1857L485.445 93.4751C486.442 96.7709 488.298 99.3742 491.014 101.236L491.579 100.412ZM486.403 93.1857L487.36 92.8963C486.485 90.0041 486.436 86.6592 487.272 82.8297L486.295 82.6165L485.318 82.4033C484.428 86.4828 484.45 90.184 485.445 93.4751L486.403 93.1857ZM486.295 82.6165L487.273 82.824L497.842 32.9977L496.864 32.7902L495.886 32.5827L485.316 82.409L486.295 82.6165ZM496.864 32.7902L497.257 33.7097L513.65 26.6995L513.257 25.78L512.864 24.8605L496.471 31.8708L496.864 32.7902ZM513.257 25.78L512.279 25.5704L500.092 82.4069L501.07 82.6165L502.048 82.8262L514.235 25.9897L513.257 25.78ZM501.07 82.6165L500.089 82.4204C499.715 84.293 499.626 85.9675 499.868 87.4184L500.854 87.254L501.841 87.0896C501.651 85.9522 501.706 84.535 502.051 82.8126L501.07 82.6165ZM500.854 87.254L499.881 87.4831C500.231 88.9687 501.079 90.1298 502.389 90.9156L502.904 90.0581L503.418 89.2006C502.571 88.6922 502.053 87.9839 501.828 87.025L500.854 87.254ZM502.904 90.0581L502.389 90.9156C503.694 91.6986 505.489 92.0287 507.649 92.0287V91.0287V90.0287C505.639 90.0287 504.27 89.7118 503.418 89.2006L502.904 90.0581ZM507.649 91.0287V92.0287H525.552V91.0287V90.0287H507.649V91.0287ZM525.552 91.0287L524.574 90.8174L521.986 102.789L522.963 103L523.941 103.211L526.529 91.2401L525.552 91.0287ZM522.963 103V102H501.394V103V104H522.963V103ZM479.5 55.2228L480.478 55.4342L483.066 43.4629L482.089 43.2516L481.111 43.0402L478.523 55.0115L479.5 55.2228ZM482.089 43.2516V44.2516H525.444V43.2516V42.2516H482.089V43.2516ZM525.444 43.2516L524.467 43.0402L521.878 55.0115L522.856 55.2228L523.833 55.4342L526.421 43.4629L525.444 43.2516ZM522.856 55.2228V54.2228H479.5V55.2228V56.2228H522.856V55.2228Z" fill="#0F0F0F" mask="url(#path-1-outside-1_2_2)"/>
</svg>
